<?xml version="1.0" standalone="no"?>
<!DOCTYPE svg PUBLIC "-//W3C//DTD SVG 20010904//EN"
 "http://www.w3.org/TR/2001/REC-SVG-20010904/DTD/svg10.dtd">
<svg version="1.0" xmlns="http://www.w3.org/2000/svg"
 width="626.000000pt" height="626.000000pt" viewBox="0 0 626.000000 626.000000"
 preserveAspectRatio="xMidYMid meet">

<g transform="translate(0.000000,626.000000) scale(0.100000,-0.100000)"
fill="#000000" stroke="none">
<path d="M1956 5604 c-269 -65 -443 -355 -371 -623 48 -180 199 -330 375 -370
64 -15 186 -13 249 4 220 58 381 265 381 490 -1 334 -309 578 -634 499z m255
-20 c137 -41 254 -139 312 -261 29 -63 32 -76 32 -168 0 -120 -22 -189 -90
-280 -225 -300 -674 -259 -840 77 -35 72 -38 85 -38 160 1 140 52 257 157 356
55 52 150 106 214 121 63 15 194 12 253 -5z"/>
<path d="M1993 5410 c-49 -22 -83 -70 -83 -117 0 -18 23 -100 51 -182 l51
-151 53 0 52 0 52 153 c28 83 51 166 51 182 0 67 -78 135 -155 135 -16 0 -49
-9 -72 -20z"/>
<path d="M1990 4895 c0 -33 42 -75 73 -75 34 0 66 29 73 68 l7 32 -77 0 c-75
0 -76 0 -76 -25z"/>
<path d="M4594 5556 c-11 -8 -34 -14 -51 -14 -40 1 -49 -6 -64 -49 -7 -21 -19
-44 -26 -52 -14 -14 -14 -31 3 -88 6 -21 3 -23 -28 -23 -45 0 -80 -37 -103
-109 -23 -70 -88 -143 -119 -135 -17 4 -47 -14 -127 -76 -227 -177 -370 -316
-385 -375 -5 -22 7 -104 21 -137 6 -14 2 -18 -17 -18 -33 0 -48 -18 -48 -57
l0 -33 -235 0 -235 0 0 33 c0 40 -15 57 -52 57 -30 0 -48 -23 -48 -64 l0 -26
-235 0 -235 0 0 33 c0 38 -15 57 -45 57 -30 0 -45 -19 -45 -57 l0 -33 -240 0
-240 0 0 33 c0 40 -15 57 -52 57 -30 0 -48 -23 -48 -64 l0 -26 -237 0 c-209 0
-243 -3 -278 -19 -59 -27 -104 -78 -120 -136 -9 -34 -20 -226 -35 -610 -11
-308 -28 -719 -36 -913 -10 -248 -11 -365 -4 -391 25 -96 116 -160 223 -161
62 0 61 2 41 -55 -2 -5 11 -20 29 -33 18 -12 47 -36 63 -53 l29 -31 -62 31
c-34 17 -67 31 -72 31 -6 0 -22 -39 -37 -86 l-27 -85 -38 37 -38 37 -38 -26
c-21 -15 -49 -35 -63 -44 -28 -21 -25 -13 28 60 l35 49 -29 24 c-16 13 -59 45
-96 71 l-68 46 -19 -24 c-10 -13 -29 -35 -41 -49 l-22 -25 7 25 c3 14 9 44 12
66 5 41 4 42 -39 68 -48 28 -230 106 -247 106 -6 0 -11 -10 -12 -22 -1 -20 -2
-19 -14 8 -13 28 -23 34 -92 53 -105 28 -192 45 -199 39 -5 -6 11 -77 42 -186
13 -43 22 -56 52 -72 36 -19 36 -19 10 -20 -16 0 -28 -6 -28 -12 0 -24 38
-132 46 -134 5 -2 35 -5 67 -9 67 -8 74 -20 15 -29 -74 -11 -74 -12 -32 -119
l38 -96 111 6 c60 3 108 3 105 0 -3 -3 -34 -13 -70 -22 -35 -9 -77 -23 -93
-31 l-28 -15 56 -106 c30 -59 55 -110 55 -115 0 -4 -12 -8 -26 -8 -53 0 -264
-63 -264 -79 0 -11 107 -101 119 -101 6 0 11 -6 12 -12 0 -7 14 -24 30 -37 27
-21 34 -22 57 -12 22 10 25 10 15 0 -21 -21 -15 -34 32 -68 47 -34 52 -34 95
-4 26 19 23 6 -7 -29 -13 -15 -11 -19 27 -43 76 -48 87 -51 123 -30 l32 18
-18 -21 c-24 -26 -18 -35 38 -56 44 -17 54 -29 35 -41 -17 -10 -11 -52 16
-120 46 -115 -25 -105 746 -105 l670 0 28 28 c27 28 77 163 66 180 -2 4 27 39
65 77 38 38 69 72 69 76 0 3 -26 14 -57 23 -32 10 -62 20 -68 22 -5 2 28 3 75
1 l84 -2 38 54 c21 30 37 60 35 65 -2 6 -39 24 -83 39 l-79 28 75 -5 c41 -3
85 -8 97 -12 18 -5 26 2 52 48 l31 53 -28 12 c-15 7 -37 12 -49 13 -13 0 -23
5 -23 10 0 6 26 10 58 10 57 0 59 1 75 35 9 20 17 38 17 40 0 3 -17 5 -37 6
l-38 1 47 15 c42 15 48 21 66 67 11 28 18 53 16 55 -5 6 -127 -84 -259 -190
-132 -106 -316 -288 -395 -389 -28 -36 -61 -78 -74 -95 -13 -16 -27 -27 -31
-23 -19 18 195 272 336 398 169 151 369 305 417 321 20 6 12 7 -28 4 -113 -11
-118 -13 -147 -66 -31 -58 -39 -58 -19 -1 18 50 19 50 -89 13 -87 -30 -89 -33
-72 -106 l7 -30 -33 38 c-19 20 -39 37 -46 37 -7 0 -9 9 -5 24 5 22 2 25 -46
35 -28 6 -59 12 -68 12 -30 2 42 17 89 18 l45 1 17 73 c23 98 24 97 -24 97
-50 0 -43 16 11 25 22 4 42 10 44 13 2 4 7 33 11 65 7 53 6 57 -11 51 -16 -5
-15 -3 3 14 18 16 25 38 34 116 l12 96 597 0 597 0 6 -457 c7 -496 12 -569 34
-577 8 -4 46 -9 84 -12 l69 -7 0 -38 c0 -34 -3 -38 -30 -44 -17 -4 -53 -26
-81 -50 -35 -29 -78 -52 -140 -75 -103 -37 -154 -77 -163 -130 -10 -54 5 -92
40 -104 39 -13 660 -13 699 1 l30 10 0 94 c-1 109 -16 163 -57 201 -23 22 -31
39 -35 81 l-5 54 68 6 c38 3 76 8 85 12 26 10 30 96 34 730 l3 581 53 107 c30
59 56 107 59 107 3 0 20 -107 38 -238 69 -487 182 -1257 187 -1269 3 -9 32
-13 95 -13 99 0 95 2 103 -67 5 -40 3 -42 -25 -48 -16 -4 -51 -26 -78 -50 -26
-23 -70 -50 -96 -60 -104 -37 -174 -76 -189 -105 -19 -37 -20 -114 -1 -129 27
-22 215 -34 456 -27 129 3 251 9 270 14 l35 8 -2 79 c-3 106 -19 170 -56 212
-30 34 -46 86 -47 156 0 37 0 37 43 37 46 1 125 14 134 23 3 3 -50 333 -117
732 -67 400 -118 730 -114 735 5 4 96 29 203 54 107 26 209 56 227 67 37 22
74 90 74 135 0 31 -122 464 -143 503 -6 13 -31 32 -53 43 -36 15 -50 16 -99 7
l-58 -10 -29 35 c-19 23 -38 36 -54 36 -20 0 -24 5 -24 33 0 21 9 40 25 56 35
32 182 280 218 365 35 84 39 157 12 226 -26 63 -142 254 -238 389 -152 214
-222 271 -363 292 -38 6 -99 25 -135 42 l-67 32 -7 75 c-3 41 -9 83 -11 93 -4
13 1 17 26 17 66 0 110 91 75 156 -14 26 -15 39 -7 64 13 37 0 73 -32 88 -12
5 -22 20 -23 32 -1 12 -12 34 -25 47 -19 21 -30 24 -62 20 -30 -4 -46 -1 -64
14 -29 23 -60 24 -88 5z m9 -163 c18 -9 58 -17 90 -18 80 -3 100 -23 99 -99 0
-31 1 -56 4 -56 2 0 10 13 18 29 29 55 76 47 76 -14 0 -47 -33 -85 -76 -85
-19 0 -34 -4 -34 -9 0 -18 -94 -113 -131 -131 -47 -24 -121 -26 -159 -4 -15 9
-36 31 -46 48 -24 41 -24 138 0 185 10 18 25 57 33 85 25 86 59 105 126 69z
m-151 -79 c4 -3 -5 -29 -18 -57 -17 -37 -24 -70 -24 -112 0 -59 -1 -61 -48
-101 l-48 -41 -37 32 -37 32 39 41 c26 27 46 63 61 106 13 41 31 73 47 86 25
20 54 26 65 14z m-206 -307 c41 -38 56 -58 51 -70 -10 -27 -22 -21 -89 43 -52
49 -60 61 -48 70 23 15 25 14 86 -43z m193 22 c29 -40 81 -61 140 -57 39 2 46
0 49 -18 3 -21 -7 -25 -231 -94 -144 -44 -146 -43 -102 33 19 35 35 72 35 82
0 17 63 85 79 85 4 0 18 -14 30 -31z m353 -35 c4 -48 1 -64 -22 -108 -16 -28
-43 -90 -60 -138 -18 -48 -36 -85 -40 -83 -4 2 -10 55 -14 117 -4 62 -9 129
-13 149 -5 35 -4 36 50 63 30 14 60 33 67 41 21 25 27 17 32 -41z m-618 -12
c22 -20 54 -47 70 -60 l29 -22 -17 -39 c-10 -21 -51 -76 -91 -122 -40 -46 -71
-86 -68 -89 3 -3 39 32 82 78 42 45 84 82 93 82 10 0 59 13 110 29 117 36 138
41 138 31 0 -4 -20 -54 -45 -110 -25 -56 -43 -105 -40 -108 3 -3 28 6 55 21
27 15 54 27 58 27 5 0 28 -43 52 -95 24 -52 46 -95 51 -95 4 0 44 43 89 95
l82 94 62 -54 c33 -30 65 -55 69 -55 5 0 6 12 3 28 -3 15 -8 76 -12 136 l-7
109 63 -6 c87 -9 161 -46 223 -110 106 -108 340 -465 379 -576 25 -70 20 -126
-21 -215 -40 -88 -160 -286 -177 -293 -16 -6 -127 44 -162 73 l-23 19 48 183
48 182 40 11 c39 11 92 8 130 -7 17 -7 18 -6 7 8 -18 23 -72 30 -131 17 -48
-10 -54 -9 -99 17 -74 43 -164 140 -200 214 -17 36 -37 98 -44 138 -7 39 -16
72 -20 72 -13 0 -19 -85 -10 -145 15 -89 49 -172 88 -210 l34 -34 7 -193 c5
-165 4 -195 -9 -206 -24 -20 -152 -48 -303 -67 -171 -22 -448 -26 -467 -7 -26
26 -35 716 -11 864 3 22 2 38 -4 38 -6 0 -13 -32 -16 -71 -3 -39 -8 -74 -11
-77 -10 -10 -177 -40 -261 -47 -198 -17 -325 51 -325 173 0 44 3 48 103 147
99 99 293 263 311 264 5 1 27 -16 50 -37z m-2165 -526 c8 -9 11 -52 9 -127
l-3 -114 -25 0 -25 0 -3 114 c-3 107 4 141 28 141 4 0 13 -6 19 -14z m589
-124 c-3 -115 -3 -117 -27 -120 -13 -2 -28 2 -32 10 -5 7 -9 59 -9 115 0 79 3
105 16 117 12 12 20 13 35 5 18 -9 19 -19 17 -127z m551 124 c8 -9 11 -52 9
-127 l-3 -114 -25 0 -25 0 -3 114 c-3 107 4 141 28 141 4 0 13 -6 19 -14z
m579 -124 c-3 -115 -3 -117 -27 -120 -13 -2 -28 2 -32 10 -5 7 -9 59 -9 115 0
79 3 105 16 117 12 12 20 13 35 5 18 -9 19 -19 17 -127z m60 99 c20 -11 48
-24 62 -30 20 -8 13 -10 -40 -8 -63 2 -65 3 -68 30 -4 32 -2 33 46 8z m512
-21 c0 -19 -6 -20 -97 -19 -109 1 -109 3 -8 23 99 19 105 19 105 -4z m-2360
-124 c0 -14 -4 -28 -10 -31 -5 -3 -10 -24 -10 -45 0 -30 6 -43 26 -59 30 -24
43 -26 78 -10 38 18 52 60 32 100 -9 18 -16 40 -16 51 0 17 13 18 235 18 257
0 266 -2 231 -55 -37 -56 -5 -119 59 -119 64 0 96 63 59 119 -34 53 -25 55
226 55 l230 0 0 -23 c0 -13 -5 -28 -11 -34 -21 -21 -14 -75 15 -100 31 -26 44
-28 80 -12 36 17 50 64 31 102 -8 17 -15 38 -15 49 0 17 13 18 230 18 254 0
261 -2 226 -60 -9 -16 -16 -38 -16 -49 0 -30 44 -71 75 -71 59 0 95 78 59 128
-35 51 -27 53 268 50 l273 -3 3 -172 2 -173 -1466 0 -1466 0 4 123 c5 143 19
179 83 208 35 16 68 19 263 19 l222 0 0 -24z m3226 -67 c10 -12 45 -39 76 -60
32 -22 55 -45 53 -52 -30 -88 -115 -445 -111 -462 4 -15 -1 -31 -13 -46 l-19
-24 -6 25 c-19 85 -22 129 -11 151 9 17 10 45 4 94 -11 94 -11 395 -1 395 5 0
17 -10 28 -21z m-863 -361 c4 -46 7 -103 7 -128 0 -25 7 -56 16 -68 14 -21 14
-31 -6 -123 -29 -135 -88 -317 -171 -528 -114 -287 -181 -523 -204 -713 l-7
-58 -1260 0 c-1252 0 -1259 0 -1299 21 -30 15 -46 32 -59 62 -17 41 -16 68 12
807 16 421 32 775 34 788 l4 22 1464 0 1463 0 6 -82z m812 -180 c3 -18 9 -55
14 -82 8 -44 6 -54 -15 -85 -13 -20 -41 -47 -62 -61 -22 -16 -42 -39 -49 -60
-7 -24 -13 -30 -17 -20 -24 62 -95 264 -93 265 1 1 31 9 67 19 36 10 81 26
100 36 47 25 48 25 55 -12z m155 -30 c30 -15 64 -30 75 -34 19 -7 18 -8 -4
-12 -53 -9 -163 41 -147 67 5 7 11 11 14 9 4 -2 32 -15 62 -30z m-680 -32 c80
-1 176 1 215 4 l70 5 41 -115 c62 -171 61 -155 12 -169 -111 -34 -168 -82
-168 -144 0 -14 18 -135 39 -271 29 -184 45 -255 61 -280 22 -37 90 -76 131
-76 21 0 127 22 171 36 21 6 23 -2 77 -266 86 -420 194 -1151 173 -1172 -6 -6
-106 -12 -251 -16 -200 -4 -241 -3 -245 9 -4 13 -38 248 -167 1154 -28 198
-53 367 -55 375 -3 8 -36 -44 -74 -117 l-70 -131 -3 -641 c-3 -373 -8 -646
-13 -651 -5 -5 -24 -13 -42 -16 l-32 -6 0 68 c1 38 13 328 29 645 l28 576 82
155 81 155 -47 269 -46 269 -41 30 c-34 26 -94 108 -109 149 -2 6 -7 8 -11 5
-13 -12 46 -108 97 -156 l52 -50 44 -256 43 -255 -80 -154 -81 -153 -31 -645
c-17 -355 -34 -647 -37 -650 -9 -9 -407 -2 -438 7 l-30 9 -7 155 c-14 293 -14
877 0 979 31 218 89 426 199 705 106 268 155 422 183 570 17 89 13 85 62 73
24 -6 108 -11 188 -12z m680 -22 c19 -7 45 -13 58 -14 18 0 21 -4 18 -22 -3
-13 -8 -45 -11 -71 -7 -49 -25 -68 -48 -49 -8 7 -18 6 -31 -3 -13 -10 -24 -11
-38 -4 -14 7 -20 6 -24 -6 -9 -22 -34 -19 -34 5 0 23 -10 26 -28 8 -20 -20
-35 11 -18 37 7 11 31 48 52 83 28 44 43 60 54 56 8 -4 31 -13 50 -20z m119
-147 c14 -18 4 -27 -31 -27 -26 0 -28 2 -18 20 12 23 33 26 49 7z m257 -39
c17 -17 41 -85 89 -250 68 -237 78 -303 48 -312 -10 -2 -157 -32 -328 -66
-335 -67 -378 -70 -422 -29 -35 34 -44 54 -60 134 -17 90 -18 85 15 79 16 -3
90 7 166 22 127 25 139 26 148 11 18 -33 125 -15 135 23 6 22 3 21 148 50 102
21 120 31 132 78 8 32 -3 39 -24 14 -13 -16 -48 -28 -137 -47 -111 -24 -120
-25 -137 -9 -16 14 -28 15 -71 8 -43 -7 -54 -13 -56 -31 -3 -23 -7 -24 -159
-53 -110 -22 -169 4 -197 87 -16 47 -22 179 -8 199 10 15 608 124 656 119 24
-2 48 -13 62 -27z m-492 -3 c25 -19 22 -21 -38 -29 -38 -6 -47 -5 -41 6 25 42
46 48 79 23z m126 5 c0 -5 -10 -10 -22 -10 -13 0 -34 -3 -48 -6 -17 -5 -22 -3
-15 4 6 6 24 12 40 15 17 2 33 5 38 6 4 0 7 -3 7 -9z m-416 -147 c15 -76 86
-503 86 -519 0 -22 -77 -71 -90 -57 -10 10 -80 454 -80 506 0 29 7 46 29 68
37 36 48 36 55 2z m550 -186 c12 -44 7 -66 -16 -72 -63 -15 -72 -12 -85 29
-16 45 -10 55 39 65 42 10 55 5 62 -22z m-13 -1093 c128 -760 133 -793 126
-800 -3 -3 -23 -8 -45 -11 -47 -6 -42 -22 -68 187 -44 354 -110 750 -180 1083
-20 93 -34 170 -32 171 5 5 83 23 86 20 2 -1 52 -294 113 -650z m-4808 350
c56 -14 107 -31 113 -37 6 -7 26 -49 45 -94 19 -46 37 -83 42 -83 10 0 9 16
-8 89 -9 35 -14 66 -12 68 5 5 158 -61 219 -94 52 -29 53 -30 21 -118 -28 -78
-28 -78 -6 -66 12 6 41 33 66 61 l45 50 81 -60 81 -60 -34 -47 c-42 -60 -99
-169 -94 -182 1 -6 23 16 48 47 43 54 122 122 140 122 17 0 171 -185 242 -289
78 -116 168 -291 227 -439 43 -107 91 -255 91 -278 0 -12 -22 -14 -141 -12
l-142 3 -33 80 c-118 280 -304 552 -610 887 -168 185 -475 470 -489 456 -3 -3
45 -50 107 -105 132 -118 370 -359 482 -488 123 -141 278 -352 357 -486 70
-119 141 -265 154 -322 l7 -27 -153 0 -154 0 -86 64 c-47 36 -114 95 -149 133
-70 74 -190 232 -190 249 0 12 72 30 155 40 124 14 79 34 -90 39 l-120 4 -47
88 c-26 48 -48 93 -48 100 0 17 120 52 214 63 43 5 81 12 84 14 12 13 -67 21
-199 20 l-146 -1 -28 71 c-15 39 -29 76 -32 82 -5 14 70 34 127 34 68 0 43 23
-41 39 -41 7 -84 15 -96 17 -15 3 -26 17 -37 51 -9 25 -16 51 -16 56 0 10 102
3 133 -9 9 -3 17 -2 17 4 0 5 -39 26 -87 45 l-87 35 -22 78 c-36 136 -36 134
-19 134 9 0 62 -12 118 -26z m1187 -251 c0 -179 -39 -573 -59 -611 -5 -8 -30
25 -69 92 -34 58 -62 109 -62 114 0 6 -35 49 -79 97 -78 86 -79 88 -69 124 16
61 39 131 44 131 16 0 118 -59 167 -97 36 -28 57 -39 57 -30 0 16 -117 140
-168 179 -31 23 -32 26 -21 51 l12 27 124 0 123 0 0 -77z m200 69 c0 -5 -26
-21 -57 -37 -48 -23 -54 -29 -38 -37 10 -6 42 -8 71 -5 61 6 56 12 73 -96 6
-41 5 -60 -3 -62 -6 -2 -48 -14 -93 -25 -45 -12 -90 -28 -100 -35 -15 -11 -4
-12 69 -8 47 3 98 3 112 -1 25 -6 26 -9 26 -78 0 -68 -2 -74 -49 -147 -62 -97
-95 -162 -138 -275 -19 -50 -36 -92 -38 -94 -2 -2 -22 36 -44 84 l-41 87 15
81 c25 135 45 353 45 502 0 77 3 144 7 147 9 10 183 8 183 -1z m696 -1 c-3 -5
-17 -12 -31 -15 -69 -17 -254 -116 -342 -183 -33 -24 -33 -24 -18 -60 20 -47
12 -53 -24 -19 l-30 28 -67 -66 -68 -66 34 -35 c36 -37 35 -45 -3 -21 -12 8
-31 16 -42 18 -17 2 -21 13 -25 63 l-5 60 -55 11 -55 11 35 7 c68 15 70 16 70
49 -1 18 -6 61 -13 97 l-12 65 -50 -3 c-43 -2 -47 0 -31 10 10 7 31 23 45 35
26 22 30 22 359 23 192 0 331 -4 328 -9z m-39 -83 c-319 -368 -549 -752 -641
-1072 -21 -71 -27 -81 -47 -81 -20 0 -28 15 -74 153 l-52 152 38 101 c45 120
112 248 175 336 l45 63 31 -16 c17 -9 53 -37 80 -62 84 -78 70 -35 -25 81
l-40 48 49 50 c26 27 52 49 56 49 4 0 29 -16 55 -36 26 -20 49 -32 50 -27 2 6
-8 34 -23 62 -25 51 -25 53 -7 67 31 24 159 104 167 104 4 0 6 -25 5 -55 -4
-75 7 -79 26 -9 9 33 20 68 24 78 7 18 119 75 149 76 8 0 -11 -28 -41 -62z
m67 -20 c-4 -35 -8 -66 -11 -70 -2 -4 -30 -22 -63 -40 -33 -18 -60 -36 -60
-40 0 -10 -5 -10 58 6 52 14 52 14 52 -9 0 -47 -17 -72 -52 -78 -19 -3 -52
-13 -74 -23 l-39 -18 35 -3 c19 -2 50 -6 69 -9 36 -6 37 -9 11 -105 l-10 -36
-83 -6 c-89 -5 -177 -24 -177 -38 0 -4 38 -8 85 -8 46 0 100 -3 120 -7 32 -6
34 -9 28 -33 -3 -14 -11 -29 -18 -33 -6 -4 -22 -16 -35 -26 -22 -18 -22 -19
-6 -44 23 -35 2 -48 -29 -18 l-24 23 -39 -32 c-22 -17 -54 -34 -71 -37 -34 -7
-53 -24 -27 -24 9 0 16 -2 16 -5 0 -3 -25 -35 -55 -70 -69 -82 -113 -148 -173
-261 -46 -87 -48 -89 -86 -92 -21 -2 -42 0 -46 5 -12 12 35 164 90 292 102
236 292 527 528 808 42 51 81 92 85 93 4 0 5 -28 1 -62z m-1804 -643 c0 -8 -4
-15 -9 -15 -5 0 -11 7 -15 15 -3 9 0 15 9 15 8 0 15 -7 15 -15z m1670 -55 c12
-23 12 -24 -3 -11 -10 7 -17 20 -17 29 0 18 3 16 20 -18z m-1849 -45 c132 -26
186 -42 177 -51 -3 -2 -72 9 -154 26 -82 16 -161 30 -176 30 -15 0 -30 5 -33
10 -10 16 46 12 186 -15z m3429 -310 c15 -8 45 -35 65 -59 l36 -45 67 41 c73
44 84 43 115 -9 21 -36 40 -174 26 -188 -12 -12 -483 -13 -631 -2 -97 8 -108
11 -108 28 0 33 61 88 126 113 l62 24 48 -49 c27 -27 52 -49 56 -49 17 0 6 21
-32 61 -29 31 -37 46 -29 53 8 8 23 -2 53 -36 23 -27 45 -48 49 -48 17 0 4 29
-28 60 -37 36 -43 50 -22 50 6 0 30 -21 53 -47 26 -30 43 -42 48 -35 4 7 -12
32 -40 62 -30 33 -41 50 -31 50 9 0 33 -20 54 -45 25 -30 40 -42 47 -35 7 7
-5 25 -34 55 -37 38 -42 47 -30 55 21 14 47 12 80 -5z m1041 -53 l56 -59 67
40 c38 22 72 37 81 33 25 -9 54 -87 61 -163 l7 -70 -108 -6 c-60 -4 -154 -7
-211 -7 -105 0 -399 17 -421 25 -20 7 5 63 41 89 17 13 57 33 88 44 l57 21 43
-49 c24 -28 46 -50 51 -50 18 0 4 27 -34 66 -31 32 -37 43 -25 47 9 4 29 -10
55 -39 39 -42 61 -55 61 -35 0 5 -18 27 -40 50 -44 45 -47 51 -26 51 8 0 32
-20 54 -45 26 -29 43 -42 47 -35 4 7 -10 30 -34 54 -22 23 -41 45 -41 49 0 17
21 4 64 -40 59 -61 64 -32 6 31 -43 46 -41 54 15 55 23 1 41 -11 86 -57z
m-2599 -62 c16 -25 -28 -127 -62 -145 -25 -13 -124 -15 -680 -15 -701 0 -691
-1 -717 52 -33 65 -43 101 -32 114 10 12 135 14 747 12 640 -3 736 -5 744 -18z
m1378 -170 c128 -7 258 -7 345 -2 134 8 179 3 145 -18 -27 -16 -155 -22 -431
-18 -285 3 -309 7 -309 45 0 11 7 13 23 9 12 -3 115 -10 227 -16z m998 -9
c110 -6 231 -8 269 -6 215 14 223 14 223 -1 0 -7 -12 -17 -27 -21 -36 -10
-650 -10 -685 0 -19 5 -28 14 -28 28 0 17 4 20 24 15 13 -3 114 -10 224 -15z"/>
<path d="M4495 5319 c-5 -7 29 -19 58 -19 9 0 17 4 17 9 0 11 -69 20 -75 10z"/>
<path d="M4635 5300 c3 -5 22 -10 41 -10 21 0 33 4 29 10 -3 6 -22 10 -41 10
-21 0 -33 -4 -29 -10z"/>
<path d="M4510 5265 c0 -8 5 -15 10 -15 6 0 10 7 10 15 0 8 -4 15 -10 15 -5 0
-10 -7 -10 -15z"/>
<path d="M4650 5260 c0 -19 3 -21 12 -12 9 9 9 15 0 24 -9 9 -12 7 -12 -12z"/>
<path d="M4830 5225 c-12 -32 -13 -45 -2 -45 12 0 31 59 21 66 -5 3 -14 -7
-19 -21z"/>
<path d="M4542 5188 c-7 -7 -12 -17 -12 -24 0 -14 38 -25 46 -13 3 5 -2 9 -12
9 -11 0 -15 6 -11 20 6 23 5 24 -11 8z"/>
<path d="M4520 5100 c-11 -7 3 -10 48 -10 35 0 62 4 62 10 0 13 -90 13 -110 0z"/>
<path d="M2620 3085 l0 -605 198 2 197 3 0 600 0 600 -197 3 -198 2 0 -605z
m380 350 l0 -235 -180 2 -181 3 0 228 c1 125 1 229 1 232 0 3 81 5 180 5 l180
0 0 -235z m0 -420 l0 -175 -182 2 -183 3 -2 158 c-1 87 1 165 4 172 4 12 37
15 184 15 l179 0 0 -175z m0 -350 l0 -165 -180 0 -179 0 -3 158 c-2 86 -2 160
0 165 2 4 84 7 183 7 l179 0 0 -165z"/>
<path d="M3080 3385 l0 -226 220 1 220 1 0 225 0 224 -220 0 -220 0 0 -225z
m428 3 l-3 -203 -207 -3 -208 -2 0 205 0 205 210 0 210 0 -2 -202z"/>
<path d="M3167 3513 c-17 -16 -4 -51 35 -90 l42 -43 -42 -43 c-42 -43 -52 -73
-30 -95 18 -18 25 -15 79 35 l51 47 44 -47 c45 -49 61 -56 82 -35 21 21 13 47
-30 94 l-41 45 42 43 c31 31 42 50 39 67 -5 40 -41 36 -93 -12 l-46 -42 -42
41 c-39 39 -74 52 -90 35z"/>
<path d="M1779 3499 c-9 -18 -6 -27 28 -62 21 -23 42 -45 48 -49 6 -4 -10 -27
-38 -55 -51 -53 -55 -64 -31 -87 23 -23 30 -21 83 29 l47 44 39 -39 c45 -46
70 -57 90 -40 24 20 17 44 -25 85 -22 21 -40 44 -40 50 0 6 18 29 40 50 41 40
49 62 28 83 -21 21 -41 13 -85 -30 l-42 -41 -45 41 c-50 47 -80 53 -97 21z"/>
<path d="M1680 3010 l0 -170 215 0 215 0 0 170 0 170 -215 0 -215 0 0 -170z
m418 0 l3 -150 -206 0 -205 0 0 148 c0 82 2 151 4 153 2 2 94 3 203 2 l198 -2
3 -151z"/>
<path d="M2140 3010 l0 -170 220 0 220 0 0 170 0 170 -220 0 -220 0 0 -170z"/>
<path d="M2140 2650 l0 -170 218 2 217 3 3 168 2 167 -220 0 -220 0 0 -170z
m420 5 l0 -155 -200 0 -200 0 0 155 0 155 200 0 200 0 0 -155z"/>
</g>
</svg>
